<svg width="74" height="74" viewBox="0 0 74 74" fill="none" xmlns="http://www.w3.org/2000/svg">
<path d="M43.1667 64.75C42.2931 64.75 41.5613 64.454 40.9713 63.862C40.3793 63.2721 40.0833 62.5403 40.0833 61.6667C40.0833 60.7931 40.3793 60.0613 40.9713 59.4713C41.5613 58.8793 42.2931 58.5833 43.1667 58.5833C45.5819 58.5833 47.7269 58.1085 49.6016 57.1588C51.4783 56.2071 52.4167 55.1403 52.4167 53.9583C52.4167 53.2389 52.0826 52.5708 51.4146 51.9542C50.7465 51.3375 49.8215 50.7722 48.6396 50.2583L53.1875 45.7104C54.8319 46.6868 56.1424 47.8431 57.1188 49.1792C58.0951 50.5153 58.5833 52.1083 58.5833 53.9583C58.5833 57.35 56.9646 59.9965 53.7271 61.8979C50.4896 63.7993 46.9694 64.75 43.1667 64.75ZM14.1062 41.1625C12.616 40.2889 11.434 39.2734 10.5604 38.1162C9.68681 36.9609 9.25 35.5611 9.25 33.9167C9.25 31.7583 10.0465 29.9464 11.6396 28.4808C13.2326 27.0172 16.0847 25.3861 20.1958 23.5875C23.4333 22.0972 25.5012 21.0561 26.3995 20.4641C27.2998 19.8741 27.75 19.2194 27.75 18.5C27.75 17.6778 27.2484 16.9583 26.2453 16.3417C25.2443 15.725 23.6903 15.4167 21.5833 15.4167C20.2986 15.4167 19.2194 15.5708 18.3458 15.8792C17.4722 16.1875 16.6757 16.7014 15.9563 17.4208C15.391 17.9861 14.6972 18.3201 13.875 18.4229C13.0528 18.5257 12.3076 18.2944 11.6396 17.7292C10.9715 17.2153 10.5861 16.5472 10.4833 15.725C10.3806 14.9028 10.6118 14.1576 11.1771 13.4896C12.1535 12.3076 13.5543 11.3056 15.3797 10.4833C17.2029 9.66111 19.2708 9.25 21.5833 9.25C25.2833 9.25 28.2639 10.0846 30.525 11.7537C32.7861 13.4248 33.9167 15.6736 33.9167 18.5C33.9167 20.5042 33.1715 22.3028 31.6812 23.8958C30.191 25.4889 27.1847 27.2618 22.6625 29.2146C19.6819 30.4993 17.7292 31.45 16.8042 32.0667C15.8792 32.6833 15.4167 33.3 15.4167 33.9167C15.4167 34.3792 15.7116 34.8293 16.3016 35.2672C16.8936 35.7029 17.7035 36.1264 18.7312 36.5375L14.1062 41.1625ZM58.1208 32.0667L45.0167 18.9625L48.2542 15.725C49.4875 14.4917 50.9644 13.875 52.6849 13.875C54.4075 13.875 55.8597 14.4917 57.0417 15.725L61.3583 20.0417C62.5917 21.2236 63.2083 22.6748 63.2083 24.3953C63.2083 26.1179 62.5917 27.5958 61.3583 28.8292L58.1208 32.0667ZM13.875 64.75C13.4639 64.75 13.1042 64.5958 12.7958 64.2875C12.4875 63.9792 12.3333 63.6194 12.3333 63.2083V52.2625C12.3333 52.1597 12.4875 51.8 12.7958 51.1833L40.7 23.2792L53.8042 36.3833L25.9 64.2875C25.7972 64.3903 25.4375 64.5444 24.8208 64.75H13.875Z" fill="black"/>
</svg>
