<svg width="789" height="403" viewBox="0 0 789 403" fill="none" xmlns="http://www.w3.org/2000/svg">
<g clip-path="url(#clip0_3_655)">
<path d="M753.979 222.801L751.507 242.467L745.373 291.314H622.143C623.105 280.366 624.421 264.608 625.826 247.596C625.965 245.897 626.11 244.187 626.248 242.467C629.773 199.704 633.629 151.313 633.629 151.313L649.83 154.329L681.262 160.17L694.07 162.548L728.369 168.93C745.47 172.106 757.233 196.848 753.979 222.801V222.801Z" fill="#F2F2F2"/>
<path d="M660.766 72.1812L675.92 98.6804L646.794 119.307L634.37 86.7342L660.766 72.1812Z" fill="#FFB6B6"/>
<path d="M641.474 97.2505C662.208 97.2505 679.016 80.4548 679.016 59.7362C679.016 39.0176 662.208 22.2219 641.474 22.2219C620.74 22.2219 603.932 39.0176 603.932 59.7362C603.932 80.4548 620.74 97.2505 641.474 97.2505Z" fill="#FFB6B6"/>
<path d="M638.778 68.1229C635.798 63.5895 636.968 61.2183 634.472 59.5522C634.472 59.5522 633.468 58.8818 626.28 58.4995C624.671 46.9263 622.662 45.5228 622.662 45.5228C620.347 43.9053 616.911 44.4308 614.774 45.4201C610.253 47.5125 610.777 52.0322 607.734 52.8971C603.529 54.0919 595.879 47.3564 595.125 39.6457C594.51 33.3559 598.565 27.247 600.174 27.5701C601.769 27.8906 605.587 23.0196 607.649 23.0947C609.057 23.146 614.809 20.6475 616.357 20.8428C618.047 21.0562 623.619 23.962 623.851 23.2981C625.465 18.6847 624.991 17.4047 626.36 16.085C628.786 13.7463 632.755 15.3749 638.981 16.2492C651.792 18.0481 654.028 13.8271 660.593 16.6881C663.91 18.1334 666.685 22.0311 672.1 29.7675C679.672 40.5868 683.458 45.9965 683.483 52.306C683.507 58.7407 680.389 58.3322 679.02 67.8582C677.495 78.4622 680.734 83.3109 677.195 86.7559C674.46 89.4185 668.901 90.0505 665.979 87.7137C660.978 83.7129 667.523 74.059 661.989 67.0059C658.592 62.6763 651.76 60.7499 648.63 62.89C645.091 65.3099 647.041 72.4126 644.552 73.0861C642.421 73.6629 639.298 68.9129 638.779 68.1229L638.778 68.1229Z" fill="#2F2E41"/>
<path d="M726.23 215.875C725.183 233.766 721.024 239.414 719.567 260.543C719.249 265.182 719.058 270.567 719.058 276.988C719.058 278.625 719.067 280.208 719.067 281.755C719.067 285.047 719.004 288.158 718.62 291.314C718.33 293.834 717.829 296.371 717.001 299.045H636.145C636.136 299.027 636.136 299.009 636.126 298.991C635.653 296.935 635.353 294.971 635.125 293.088C635.052 292.488 634.988 291.896 634.934 291.314C634.861 290.632 634.797 289.959 634.734 289.295C634.488 286.648 634.242 284.147 633.659 281.755C632.877 278.453 631.457 275.342 628.544 272.341C627.352 271.113 626.16 270.158 624.994 269.321C624.767 269.166 624.548 269.012 624.321 268.857C621.098 266.647 618.049 265.055 615.409 260.543C615.364 260.48 615.328 260.407 615.291 260.344C614.836 259.552 613.653 257.478 612.797 254.713C611.895 251.839 611.35 248.228 612.333 244.535C614.672 235.785 623.337 234.912 630.419 226.071C631.184 225.116 631.939 224.061 632.658 222.887C635.862 217.684 636.727 213.101 637.746 207.652C637.91 206.77 638.056 205.896 638.174 205.051C638.266 204.414 638.347 203.786 638.411 203.168C638.975 197.974 638.702 193.499 638.038 189.497C635.872 176.39 629.481 168.277 633.996 156.516C635.417 152.824 637.428 150.049 639.458 147.675C643.754 142.645 648.169 139.38 647.404 132.886C646.63 126.337 641.66 125.436 641.106 119.715C640.823 116.823 641.77 113.776 643.545 110.783V110.774C649.225 101.142 663.406 92.2734 672.417 92.5554C674.083 92.6011 675.558 92.9737 676.786 93.6923C681.238 96.3118 679.381 102.033 686.199 110.056C691.268 116.013 697.002 118.396 699.178 119.524C707.798 124.018 714.807 137.27 719.567 154.215C719.604 154.342 719.64 154.47 719.676 154.606C722.617 165.221 724.693 177.273 725.721 189.497C726.157 194.673 726.413 199.875 726.467 205.023C726.513 209.135 726.421 212.7 726.23 215.875Z" fill="black"/>
<path d="M665.682 277.171L664.034 281.755L662.997 284.629L660.593 291.314L657.808 299.045H639.904L642.907 291.314L644.3 287.712L646.612 281.755L650.49 271.75L665.682 277.171Z" fill="#FFB6B6"/>
<path d="M719.85 152.65C719.804 153.242 719.74 153.896 719.676 154.606C718.967 161.828 717.291 174.753 714.843 189.497C713.551 197.274 712.04 205.56 710.338 213.792C706.679 231.555 702.128 249.047 696.985 260.543C696.065 262.617 695.119 264.491 694.153 266.146C693.417 267.411 692.642 268.657 691.832 269.885C689.211 273.914 686.271 277.734 683.222 281.3C683.103 281.454 682.967 281.6 682.831 281.755C682.339 282.337 681.829 282.91 681.319 283.483C678.825 286.293 676.277 288.913 673.81 291.314C670.806 294.243 667.911 296.835 665.317 299.045H636.244L636.126 298.991L631.939 297.135C631.939 297.135 633.131 295.734 635.125 293.088C635.535 292.551 635.971 291.96 636.445 291.314C637.027 290.523 637.656 289.649 638.329 288.703C639.73 286.721 641.323 284.392 643.035 281.755C646.348 276.652 650.125 270.376 653.94 263.109C654.377 262.262 654.822 261.408 655.268 260.543C655.277 260.516 655.296 260.489 655.305 260.462C656.06 258.988 656.807 257.469 657.553 255.923C663.879 242.77 665.691 231.855 666.21 228.318C666.938 223.315 667.948 216.32 667.675 208.625C667.493 203.55 666.756 198.183 664.999 192.853V192.844C664.635 191.726 664.225 190.607 663.761 189.497C662.933 187.505 661.949 185.54 660.784 183.603C655.642 175.071 651.464 174.717 648.141 165.421C647.158 162.665 644.928 156.444 645.611 149.876V149.867C645.693 149.058 645.829 148.239 646.011 147.42V147.411C646.057 147.184 646.121 146.948 646.185 146.72C646.703 144.71 647.559 142.718 648.86 140.826C651.4 137.152 654.868 134.968 657.972 133.668L657.981 133.659C661.567 132.167 664.662 131.849 665.263 131.794C678.561 130.612 688.874 141.781 694.509 147.884C696.684 150.24 698.678 152.214 700.498 153.824C714.67 166.467 718.557 158.39 719.567 154.215C719.722 153.569 719.804 153.014 719.85 152.65V152.65Z" fill="black"/>
<path d="M719.895 152.178C719.895 152.223 719.886 152.378 719.85 152.633C719.868 152.496 719.877 152.359 719.886 152.232C719.886 152.205 719.886 152.187 719.895 152.178Z" fill="black"/>
<path d="M647.604 344.105H159.674C155.14 344.105 151.445 347.789 151.445 352.319C151.445 356.858 155.14 360.541 159.674 360.541H647.604C652.137 360.541 655.824 356.858 655.824 352.319C655.824 347.789 652.137 344.105 647.604 344.105Z" fill="#E6E6E6"/>
<path d="M539.323 386.564H267.946C263.413 386.564 259.726 390.248 259.726 394.777C259.726 399.307 263.413 403 267.946 403H539.323C543.856 403 547.552 399.307 547.552 394.777C547.552 390.248 543.856 386.564 539.323 386.564Z" fill="#E6E6E6"/>
<path d="M213.968 73.9249L244.719 60.9929L257.909 88.012L225.594 101.192L213.968 73.9249Z" fill="#FFB6B6"/>
<path opacity="0.1" d="M213.968 73.9249L244.719 60.9929L257.909 88.012L225.594 101.192L213.968 73.9249Z" fill="black"/>
<path d="M218.34 63.6289L248.676 98.5561C248.676 98.5561 227.573 165.115 206.469 171.046C185.365 176.977 146.456 205.974 146.456 205.974L97.6539 174.341L121.395 139.414C121.395 139.414 178.771 60.9929 193.939 60.9929C209.107 60.9929 218.34 63.6289 218.34 63.6289V63.6289Z" fill="black"/>
<path d="M177.353 291.315H106.735L102.27 285.351L84.0421 261L79.8478 255.399C79.8478 255.399 64.0201 226.403 67.3175 200.043C70.615 173.682 104.908 167.751 104.908 167.751H106.32L148.302 204.616L145.796 238.924L159.092 261L177.353 291.315Z" fill="#2F2E41"/>
<path d="M121.198 291.315H102.27V263.307L121.198 291.315Z" fill="#2F2E41"/>
<path d="M529.432 248.796L527.078 261L521.235 291.314H403.853C404.77 284.52 406.023 274.74 407.362 264.183C407.494 263.129 407.632 262.068 407.764 261C411.121 234.462 414.794 204.431 414.794 204.431L430.226 206.303L460.167 209.928L472.367 211.404L505.038 215.364C521.327 217.335 532.532 232.69 529.432 248.796H529.432Z" fill="#F2F2F2"/>
<path d="M695.55 291.314H631.884C632.853 290.174 633.4 289.515 633.4 289.515L652.486 286.365L691.811 279.881C691.811 279.881 693.605 284.513 695.55 291.314V291.314Z" fill="#2F2E41"/>
<path d="M425.493 87.106L453.181 126.234L404.885 127.675L399.701 90.9041L425.493 87.106Z" fill="#A0616A"/>
<path opacity="0.1" d="M425.493 87.106L453.181 126.234L404.885 127.675L399.701 90.9041L425.493 87.106Z" fill="black"/>
<path d="M288.95 168.176C285.398 157.935 277.23 151.465 270.708 153.726C264.186 155.986 261.781 166.119 265.336 176.363C266.7 180.475 269.03 184.2 272.13 187.227L287.731 230.429L307.863 222.681L290.346 180.915C290.905 176.618 290.427 172.25 288.95 168.176Z" fill="#A0616A"/>
<path d="M476.368 148.238L476.331 188.115L472.618 202.843L464.981 233.138L459.421 261L455.28 281.759L453.803 289.173C452.688 289.917 451.58 290.629 450.472 291.315H354.009C348.529 288.026 345.462 285.469 345.462 285.469C345.462 285.469 346.979 284.046 348.713 281.759C351.642 277.897 355.183 271.571 353.013 265.528C352.558 264.262 352.44 262.72 352.578 261C353.462 249.652 365.372 230.462 365.372 230.462L362.906 201.98L361.824 189.499L369.45 128.639L394.306 114.201L398.597 113.786L440.956 111.499L458.464 112.507L459.261 112.725L476.368 148.238V148.238Z" fill="#CCCCCC"/>
<path d="M478.25 291.314H457.146L456.216 281.759L456.196 281.568L462.171 281.159L477.716 280.098L477.986 285.818L478.197 290.207L478.25 291.314Z" fill="#FFB6B6"/>
<path d="M483.445 157.879L492.31 209.855L485.075 261L483.948 268.961L481.956 283.017L481.343 287.341L481.363 287.808L481.514 291.314H456.454L455.53 281.759L455.451 280.902L453.565 261.33L453.532 261L449.529 219.496L457.377 189.498L457.957 187.291V187.284L461.372 135.921L458.727 112.58L458.701 112.362C458.754 112.395 458.8 112.428 458.853 112.461C458.991 112.547 459.13 112.632 459.262 112.725C474.667 122.491 483.847 139.625 483.445 157.879Z" fill="#CCCCCC"/>
<path d="M378.428 138.599L368.791 128.638C368.791 128.638 348.161 137.932 347.132 143.088C346.104 148.244 309.68 223.972 309.68 223.972L293.833 181.678L273.205 195.44C273.205 195.44 289.756 261.103 305.236 264.186C320.715 267.269 372.595 186.467 372.595 186.467L378.428 138.599H378.428Z" fill="#CCCCCC"/>
<path d="M769.73 260.543H19.2607C8.63834 260.543 0 269.184 0 279.799C0 290.414 8.63833 299.046 19.2607 299.046H769.73C780.353 299.046 789 290.414 789 279.799C789 269.184 780.353 260.543 769.73 260.543Z" fill="#E6E6E6"/>
<path d="M471.976 201.869L470.517 269.907C470.376 276.493 464.993 281.759 458.4 281.759H333.15C326.713 281.759 321.399 276.731 321.047 270.309L317.325 202.271C316.946 195.333 322.474 189.499 329.427 189.499H459.859C466.654 189.499 472.122 195.08 471.976 201.869Z" fill="#3F3D56"/>
<path d="M269.78 90.3485C286.33 90.3485 299.746 76.9418 299.746 60.4038C299.746 43.8659 286.33 30.4592 269.78 30.4592C253.229 30.4592 239.813 43.8659 239.813 60.4038C239.813 76.9418 253.229 90.3485 269.78 90.3485Z" fill="#FFB6B6"/>
<path d="M219.659 138.755L222.956 174.341L245.379 264.625L226.007 271.409L193.279 173.023L188.759 133.483L219.659 138.755Z" fill="#FFB6B6"/>
<path d="M210.739 201.869L209.28 269.907C209.139 276.493 203.755 281.759 197.163 281.759H71.9124C65.4757 281.759 60.1617 276.731 59.8103 270.309L56.0881 202.271C55.7085 195.333 61.2364 189.499 68.1902 189.499H198.622C205.417 189.499 210.885 195.08 210.739 201.869Z" fill="#3F3D56"/>
<path d="M248.949 282.219C262.019 282.219 272.615 277.536 272.615 271.759C272.615 265.982 262.019 261.299 248.949 261.299C235.879 261.299 225.283 265.982 225.283 271.759C225.283 277.536 235.879 282.219 248.949 282.219Z" fill="#FFB6B6"/>
<path d="M173.165 144.196L186.684 72.196C186.684 72.196 224.275 66.924 225.594 79.445C226.913 91.9661 224.652 153.158 224.652 153.158L173.165 144.196V144.196Z" fill="black"/>
<path d="M257.683 65.1123C257.683 65.1123 276.22 58.5012 284.04 54.9441C291.859 51.387 307.394 76.1974 307.739 63.0942C308.085 49.991 302.717 44.4961 302.717 44.4961C302.717 44.4961 301.376 15.831 272.476 19.4149C272.476 19.4149 278.833 5.0734 257.966 2.85575C237.099 0.638108 204.636 50.991 207.543 58.5159C210.451 66.0409 213.936 72.2621 205.688 80.3079C197.439 88.3538 181.994 133.762 193.745 145.982C205.497 158.201 206.268 163.503 198.216 171.105C190.165 178.707 171.133 195.236 191.711 198.106C212.288 200.975 189.828 198.832 205.169 185.348C220.51 171.864 242.896 172.414 234.537 150.78C226.179 129.146 240.701 98.1441 238.883 93.441C237.066 88.7379 242.955 58.8729 242.955 58.8729C242.955 58.8729 256.658 56.861 257.683 65.1123V65.1123Z" fill="#2F2E41"/>
<path d="M410.689 101.268C428.705 101.268 443.31 86.6741 443.31 68.6713C443.31 50.6686 428.705 36.0745 410.689 36.0745C392.673 36.0745 378.069 50.6686 378.069 68.6713C378.069 86.6741 392.673 101.268 410.689 101.268Z" fill="#A0616A"/>
<path d="M413.293 24.847C412.349 25.3976 411.085 24.5646 410.782 23.5152C410.479 22.4657 410.832 21.3515 411.181 20.3167L412.942 15.1074C414.19 11.4129 415.515 7.58932 418.218 4.77732C422.299 0.533055 428.783 -0.546665 434.621 0.235554C442.117 1.24008 449.514 5.29643 453 12.0041C456.485 18.7119 455.001 28.0715 448.703 32.2565C457.68 42.5376 460.809 53.9957 460.315 67.631C459.821 81.2662 444.951 93.8151 435.253 103.421C433.088 102.109 431.119 95.9614 432.31 93.7281C433.501 91.4948 431.795 88.9075 433.269 86.8504C434.744 84.7934 435.978 88.0688 434.487 86.0234C433.546 84.7327 437.218 81.7634 435.82 80.991C429.055 77.2545 426.806 68.829 422.557 62.377C417.432 54.5946 408.662 49.3243 399.38 48.45C394.267 47.9683 388.867 48.8407 384.676 51.8068C380.485 54.773 377.772 60.0735 378.744 65.1126C376.227 62.5589 374.974 58.8165 375.447 55.2636C375.919 51.7106 378.107 48.4251 381.204 46.617C379.321 40.3942 380.934 33.2363 385.304 28.4209C389.675 23.6055 407.405 24.4257 413.786 25.693L413.293 24.847Z" fill="#2F2E41"/>
<path d="M414.284 48.6389C422.735 49.5506 428.837 56.866 433.99 63.6218C436.96 67.5157 440.071 71.8158 439.996 76.7112C439.921 81.6605 436.61 85.9056 435.027 90.5961C432.44 98.2628 434.961 107.384 441.119 112.638C435.034 113.791 428.457 109.232 427.406 103.133C426.183 96.0331 431.57 89.1804 430.932 82.0042C430.37 75.6818 425.384 70.816 421.145 66.0888C416.906 61.3616 412.925 55.0887 414.875 49.048L414.284 48.6389Z" fill="#2F2E41"/>
<path d="M540.631 264.663C532.26 269.421 527.931 277.594 530.962 282.917C533.993 288.24 543.235 288.697 551.609 283.937C554.98 282.081 557.857 279.445 560 276.25L595.214 255.644L585.184 239.337L551.534 261.383C547.69 261.591 543.951 262.715 540.631 264.663Z" fill="#FFB6B6"/>
<path d="M659.86 113.551C658.808 113.134 649.574 109.64 641.145 114.253C631.461 119.553 629.966 131.65 629.441 135.893C628.229 145.695 631.799 147.892 632.553 157.814C633.963 176.379 637.681 155.2 631.743 163.674C629.688 166.608 608.699 212.062 597.123 220.965C574.61 238.281 560.314 250.475 560.314 250.475L576.635 268.191C576.635 268.191 602.425 261.324 625.219 246.534C648.602 231.363 660.293 223.777 669.338 208.937C670.117 207.659 688.754 176.033 678.745 141.061C676.462 133.084 672.279 118.469 659.86 113.551Z" fill="black"/>
<path d="M744.136 201.869L742.677 269.907C742.536 276.493 737.153 281.759 730.56 281.759H605.31C598.873 281.759 593.559 276.731 593.207 270.309L589.485 202.271C589.106 195.333 594.634 189.499 601.587 189.499H732.019C738.814 189.499 744.282 195.08 744.136 201.869Z" fill="#3F3D56"/>
</g>
<defs>
<clipPath id="clip0_3_655">
<rect width="789" height="403" fill="white"/>
</clipPath>
</defs>
</svg>
