<svg width="93" height="97" viewBox="0 0 93 97" fill="none" xmlns="http://www.w3.org/2000/svg">
<path fill-rule="evenodd" clip-rule="evenodd" d="M0.756737 0.788917C-0.252246 1.84081 -0.252246 95.1762 0.756737 96.2281C1.67917 97.1897 90.1578 97.2866 91.8766 96.328C92.9727 95.7163 93 94.5476 93 48.6084C93 12.7878 92.8333 1.34181 92.3029 0.788917C91.294 -0.262972 1.76572 -0.262972 0.756737 0.788917ZM89.405 37.0025C89.5043 54.8216 89.4102 74.6465 89.1958 81.0583L88.8067 92.7157H46.4665H4.12583V48.5049V4.2934L46.6751 4.44903L89.2243 4.60406L89.405 37.0025ZM36.6869 72.3295C33.9852 73.3965 32.4813 75.6814 32.1555 79.2137C31.8232 82.8205 33.039 86.1458 35.2388 87.6488C37.3868 89.1161 44.344 89.1682 46.8836 87.7354C51.4098 85.1829 51.4441 75.3707 46.9347 72.9393C44.5822 71.6712 39.1695 71.3491 36.6869 72.3295ZM12.0647 72.53C11.8515 72.7516 11.6772 76.4305 11.6772 80.7053V88.4766H13.4199H15.1625V83.632C15.1625 80.1596 15.3681 78.788 15.8886 78.7886C16.2882 78.7892 18.2667 80.9693 20.2864 83.6332C23.598 88.0019 24.1533 88.4766 25.95 88.4766H27.9418V80.675C27.9418 73.1743 27.893 72.8594 26.679 72.5287C25.9848 72.3392 25.2006 72.3235 24.9363 72.4936C24.6726 72.6638 24.4565 74.9668 24.4565 77.612C24.4565 80.2571 24.2416 82.4209 23.9785 82.4209C23.7153 82.4209 21.6079 80.1045 19.296 77.2735C16.3039 73.6103 14.7111 72.126 13.7719 72.126C13.0458 72.126 12.2773 72.3077 12.0647 72.53ZM54.4931 72.5039C54.2665 72.7401 54.0812 76.4305 54.0812 80.7053V88.4766H55.8407H57.6002L57.4381 80.4527C57.2854 72.9012 57.2064 72.4185 56.0905 72.252C55.4382 72.1545 54.7196 72.2683 54.4931 72.5039ZM45.1038 76.6406C48.413 80.09 46.0181 85.4488 41.1672 85.4488C37.2823 85.4488 36.0741 84.2273 36.0741 80.3013C36.0741 77.6168 36.3029 76.8726 37.3654 76.0968C39.424 74.5932 43.4088 74.8729 45.1038 76.6406Z" fill="black"/>
<path fill-rule="evenodd" clip-rule="evenodd" d="M42.6171 18.5012C44.1753 21.3395 45.451 24.0716 45.4522 24.5724C45.4539 25.0733 44.124 27.874 42.4977 30.7955L39.5409 36.1078H33.2849H27.0295L24.015 30.6018C22.3567 27.5741 21 24.822 21 24.4862C21 24.1505 22.3689 21.4287 24.0424 18.438L27.0842 13L33.4346 13.17L39.7849 13.3406L42.6171 18.5012ZM64.0042 31.2696C65.652 34.2846 67 36.885 67 37.0477C67 37.2104 65.673 39.7973 64.0513 42.7965L61.1033 48.2504H54.5538H48.0043L45.129 42.938C43.547 40.0165 42.2532 37.3524 42.2532 37.0185C42.2532 36.6846 43.5633 34.0284 45.1646 31.116L48.0759 25.8207L54.5422 25.8037L61.0084 25.7867L64.0042 31.2696ZM42.8395 43.7849L45.9163 49.3371L42.7376 55.1686L39.559 61H33.3303H27.1017L24.0511 55.5577C22.373 52.5646 21 49.7821 21 49.3747C21 48.9668 22.3724 46.2165 24.0494 43.2628L27.0988 37.8922L33.4311 38.0622L39.7633 38.2328L42.8395 43.7849Z" fill="black"/>
</svg>
