<svg width="598" height="440" viewBox="0 0 598 440" fill="none" xmlns="http://www.w3.org/2000/svg">
<g clip-path="url(#clip0_4_949)">
<path d="M158.84 324.956C71.2552 324.956 0 253.592 0 165.872C0 78.1531 71.2552 6.78857 158.84 6.78857C184.289 6.81475 209.361 12.9513 231.953 24.6836C254.545 36.4159 274 53.4021 288.686 74.218L287.183 75.2814C272.667 54.7061 253.438 37.9163 231.107 26.3195C208.776 14.7227 183.995 8.65702 158.84 8.63107C72.2703 8.63107 1.83968 79.1697 1.83968 165.872C1.83968 252.575 72.2703 323.114 158.84 323.114C182.956 323.193 206.761 317.67 228.387 306.981C250.012 296.292 268.869 280.727 283.475 261.508L284.934 262.629C270.157 282.073 251.08 297.82 229.201 308.635C207.322 319.449 183.238 325.036 158.84 324.956Z" fill="#E6E6E6"/>
<path d="M224.507 139.232C222.766 139.232 221.064 138.715 219.616 137.746C218.168 136.777 217.039 135.4 216.373 133.788C215.706 132.177 215.532 130.404 215.872 128.694C216.212 126.983 217.05 125.412 218.281 124.179C219.513 122.945 221.082 122.105 222.79 121.765C224.498 121.425 226.268 121.6 227.877 122.267C229.486 122.934 230.861 124.065 231.828 125.515C232.796 126.965 233.312 128.67 233.312 130.414C233.312 132.753 232.384 134.996 230.733 136.649C229.082 138.303 226.842 139.232 224.507 139.232Z" fill="#E6E6E6"/>
<path d="M227.578 132.259L225.736 130.414L227.578 128.569C227.659 128.488 227.723 128.392 227.767 128.286C227.811 128.181 227.834 128.067 227.834 127.953C227.835 127.838 227.812 127.725 227.769 127.619C227.725 127.514 227.661 127.417 227.58 127.336C227.499 127.256 227.403 127.191 227.298 127.148C227.192 127.104 227.079 127.081 226.964 127.082C226.85 127.082 226.737 127.105 226.631 127.149C226.526 127.193 226.43 127.257 226.35 127.338L224.507 129.184L222.665 127.338C222.502 127.175 222.281 127.084 222.051 127.084C221.82 127.084 221.599 127.175 221.437 127.338C221.274 127.502 221.182 127.723 221.182 127.954C221.182 128.184 221.274 128.406 221.437 128.569L223.279 130.414L221.437 132.259C221.274 132.422 221.184 132.643 221.184 132.874C221.184 133.104 221.276 133.325 221.439 133.487C221.601 133.65 221.821 133.742 222.051 133.742C222.281 133.743 222.502 133.652 222.665 133.489L224.507 131.644L226.35 133.489C226.43 133.57 226.526 133.634 226.631 133.678C226.737 133.722 226.85 133.744 226.964 133.744C227.078 133.744 227.191 133.722 227.296 133.678C227.402 133.634 227.497 133.57 227.578 133.489C227.659 133.409 227.723 133.313 227.766 133.207C227.81 133.102 227.832 132.988 227.832 132.874C227.832 132.76 227.81 132.647 227.766 132.541C227.723 132.436 227.659 132.34 227.578 132.259Z" fill="white"/>
<path d="M180.719 35.0973C190.396 35.0973 198.241 27.2405 198.241 17.5487C198.241 7.8568 190.396 0 180.719 0C171.042 0 163.197 7.8568 163.197 17.5487C163.197 27.2405 171.042 35.0973 180.719 35.0973Z" fill="#E6E6E6"/>
<path d="M178.329 26.6819C178.026 26.6819 177.728 26.6113 177.457 26.4758C177.186 26.3402 176.951 26.1434 176.769 25.9009L171.989 19.5174C171.836 19.3123 171.724 19.079 171.66 18.8307C171.597 18.5823 171.583 18.3239 171.619 18.0702C171.655 17.8164 171.741 17.5723 171.871 17.3517C172.002 17.1311 172.174 16.9384 172.379 16.7846C172.584 16.6308 172.817 16.5189 173.065 16.4553C173.313 16.3917 173.571 16.3776 173.824 16.4139C174.078 16.4502 174.321 16.5361 174.542 16.6667C174.762 16.7973 174.954 16.97 175.108 17.1751L178.235 21.351L186.267 9.28432C186.556 8.85731 187.001 8.56186 187.506 8.46244C188.011 8.36302 188.535 8.4677 188.963 8.75365C189.391 9.03959 189.689 9.48358 189.792 9.98872C189.895 10.4939 189.794 11.0192 189.511 11.45L179.95 25.8126C179.778 26.0723 179.545 26.2868 179.272 26.4379C178.999 26.5891 178.694 26.6725 178.383 26.6813L178.329 26.6819Z" fill="white"/>
<path d="M202.173 49.2081H160.038C157.463 49.2081 155.375 51.2991 155.375 53.8784V55.5592C155.375 58.1385 157.463 60.2295 160.038 60.2295H202.173C204.749 60.2295 206.837 58.1385 206.837 55.5592V53.8784C206.837 51.2991 204.749 49.2081 202.173 49.2081Z" fill="#E6E6E6"/>
<path d="M228.309 71.2509H133.902C131.327 71.2509 129.239 73.3418 129.239 75.9211V77.6019C129.239 80.1813 131.327 82.2722 133.902 82.2722H228.309C230.884 82.2722 232.972 80.1813 232.972 77.6019V75.9211C232.972 73.3418 230.884 71.2509 228.309 71.2509Z" fill="#E6E6E6"/>
<path d="M228.309 93.2936H133.902C131.327 93.2936 129.239 95.3845 129.239 97.9639V99.6446C129.239 102.224 131.327 104.315 133.902 104.315H228.309C230.884 104.315 232.972 102.224 232.972 99.6446V97.9639C232.972 95.3845 230.884 93.2936 228.309 93.2936Z" fill="#E6E6E6"/>
<path d="M170.887 328.316C169.145 328.316 167.443 327.799 165.995 326.83C164.547 325.861 163.419 324.484 162.752 322.873C162.086 321.262 161.911 319.488 162.251 317.778C162.591 316.067 163.43 314.496 164.661 313.263C165.892 312.03 167.461 311.19 169.169 310.849C170.877 310.509 172.647 310.684 174.256 311.351C175.865 312.019 177.24 313.149 178.208 314.599C179.175 316.049 179.691 317.754 179.691 319.498C179.691 321.837 178.764 324.08 177.113 325.734C175.461 327.387 173.222 328.316 170.887 328.316Z" fill="#E6E6E6"/>
<path d="M173.957 321.343L172.115 319.498L173.957 317.653C174.12 317.49 174.212 317.269 174.212 317.038C174.212 316.807 174.12 316.586 173.957 316.423C173.794 316.26 173.574 316.168 173.343 316.168C173.113 316.168 172.892 316.26 172.729 316.423L170.887 318.268L169.044 316.423C168.881 316.26 168.66 316.168 168.43 316.168C168.2 316.168 167.979 316.26 167.816 316.423C167.653 316.586 167.562 316.807 167.562 317.038C167.562 317.269 167.653 317.49 167.816 317.653L169.658 319.498L167.816 321.343C167.653 321.507 167.562 321.728 167.562 321.959C167.562 322.189 167.653 322.41 167.816 322.574C167.979 322.737 168.2 322.828 168.43 322.828C168.66 322.828 168.881 322.737 169.044 322.574L170.887 320.728L172.729 322.574C172.892 322.737 173.113 322.828 173.343 322.828C173.574 322.828 173.794 322.737 173.957 322.574C174.12 322.41 174.212 322.189 174.212 321.959C174.212 321.728 174.12 321.507 173.957 321.343Z" fill="white"/>
<path d="M127.098 224.182C136.775 224.182 144.62 216.325 144.62 206.633C144.62 196.941 136.775 189.084 127.098 189.084C117.421 189.084 109.577 196.941 109.577 206.633C109.577 216.325 117.421 224.182 127.098 224.182Z" fill="#E6E6E6"/>
<path d="M124.708 215.766C124.405 215.766 124.107 215.696 123.836 215.56C123.566 215.424 123.33 215.228 123.149 214.985L118.369 208.602C118.215 208.397 118.103 208.163 118.04 207.915C117.976 207.667 117.962 207.408 117.999 207.154C118.035 206.901 118.121 206.657 118.251 206.436C118.381 206.215 118.554 206.023 118.759 205.869C118.963 205.715 119.196 205.603 119.444 205.54C119.692 205.476 119.95 205.462 120.204 205.498C120.457 205.534 120.701 205.62 120.921 205.751C121.141 205.882 121.334 206.054 121.487 206.259L124.615 210.435L132.647 198.369C132.788 198.153 132.97 197.968 133.183 197.824C133.396 197.68 133.635 197.579 133.887 197.528C134.139 197.476 134.399 197.475 134.651 197.525C134.903 197.575 135.143 197.674 135.357 197.816C135.571 197.959 135.754 198.143 135.897 198.357C136.04 198.571 136.139 198.812 136.188 199.064C136.238 199.317 136.237 199.577 136.186 199.829C136.135 200.081 136.034 200.321 135.89 200.534L126.33 214.897C126.157 215.157 125.924 215.371 125.652 215.522C125.379 215.673 125.074 215.757 124.762 215.766L124.708 215.766Z" fill="white"/>
<path d="M148.553 238.292H106.417C103.842 238.292 101.754 240.383 101.754 242.963V244.643C101.754 247.223 103.842 249.314 106.417 249.314H148.553C151.128 249.314 153.216 247.223 153.216 244.643V242.963C153.216 240.383 151.128 238.292 148.553 238.292Z" fill="#E6E6E6"/>
<path d="M174.689 260.335H80.2818C77.7064 260.335 75.6187 262.426 75.6187 265.005V266.686C75.6187 269.265 77.7064 271.356 80.2818 271.356H174.689C177.264 271.356 179.352 269.265 179.352 266.686V265.005C179.352 262.426 177.264 260.335 174.689 260.335Z" fill="#E6E6E6"/>
<path d="M174.689 282.378H80.2818C77.7064 282.378 75.6187 284.469 75.6187 287.048V288.729C75.6187 291.308 77.7064 293.399 80.2818 293.399H174.689C177.264 293.399 179.352 291.308 179.352 288.729V287.048C179.352 284.469 177.264 282.378 174.689 282.378Z" fill="#E6E6E6"/>
<path d="M353.025 290.693C350.62 290.693 348.269 289.978 346.27 288.64C344.27 287.302 342.712 285.401 341.792 283.176C340.871 280.95 340.631 278.502 341.1 276.14C341.569 273.778 342.727 271.608 344.427 269.905C346.128 268.202 348.294 267.042 350.653 266.572C353.011 266.103 355.456 266.344 357.677 267.265C359.899 268.187 361.798 269.748 363.134 271.75C364.47 273.753 365.183 276.107 365.183 278.516C365.183 281.745 363.902 284.842 361.622 287.126C359.342 289.41 356.249 290.693 353.025 290.693Z" fill="#E6E6E6"/>
<path d="M357.265 281.064L354.721 278.515L357.265 275.967C357.49 275.742 357.616 275.437 357.616 275.118C357.616 274.799 357.49 274.494 357.265 274.269C357.04 274.043 356.735 273.917 356.417 273.917C356.099 273.917 355.794 274.043 355.569 274.269L353.025 276.817L350.48 274.269C350.255 274.043 349.95 273.917 349.632 273.917C349.314 273.917 349.009 274.043 348.784 274.269C348.559 274.494 348.433 274.799 348.433 275.118C348.433 275.437 348.559 275.742 348.784 275.967L351.328 278.515L348.784 281.064C348.559 281.289 348.433 281.594 348.433 281.913C348.433 282.232 348.559 282.537 348.784 282.762C349.009 282.988 349.314 283.114 349.632 283.114C349.95 283.114 350.255 282.988 350.48 282.762L353.024 280.214L355.569 282.762C355.794 282.988 356.099 283.114 356.417 283.114C356.735 283.114 357.04 282.988 357.265 282.762C357.49 282.537 357.616 282.232 357.616 281.913C357.616 281.594 357.49 281.289 357.265 281.064L357.265 281.064Z" fill="white"/>
<path d="M300.051 146.892C313.414 146.892 324.247 136.043 324.247 122.659C324.247 109.276 313.414 98.4263 300.051 98.4263C286.688 98.4263 275.855 109.276 275.855 122.659C275.855 136.043 286.688 146.892 300.051 146.892Z" fill="#13CB5C"/>
<path d="M296.75 135.271C296.332 135.271 295.92 135.174 295.547 134.987C295.173 134.8 294.848 134.528 294.597 134.193L287.996 125.378C287.784 125.095 287.63 124.773 287.542 124.43C287.454 124.087 287.435 123.73 287.485 123.379C287.535 123.029 287.653 122.692 287.834 122.387C288.014 122.083 288.252 121.817 288.535 121.604C288.817 121.392 289.139 121.237 289.482 121.15C289.824 121.062 290.18 121.042 290.53 121.092C290.88 121.142 291.217 121.261 291.521 121.441C291.825 121.622 292.09 121.86 292.303 122.143L296.621 127.91L307.713 111.247C307.909 110.952 308.161 110.699 308.455 110.502C308.748 110.305 309.078 110.168 309.425 110.098C309.771 110.029 310.128 110.029 310.475 110.097C310.822 110.166 311.152 110.302 311.446 110.499C311.74 110.695 311.993 110.948 312.189 111.242C312.386 111.536 312.523 111.866 312.592 112.213C312.662 112.561 312.662 112.918 312.593 113.265C312.524 113.613 312.388 113.943 312.192 114.238L298.99 134.071C298.751 134.43 298.43 134.726 298.053 134.935C297.677 135.143 297.255 135.258 296.825 135.271C296.8 135.271 296.775 135.271 296.75 135.271Z" fill="white"/>
<path d="M331.454 166.378H269.716C267.141 166.378 265.053 168.469 265.053 171.048V176.927C265.053 179.507 267.141 181.598 269.716 181.598H331.454C334.029 181.598 336.117 179.507 336.117 176.927V171.048C336.117 168.469 334.029 166.378 331.454 166.378Z" fill="#3F3D56"/>
<path d="M367.545 196.817H233.626C231.05 196.817 228.962 198.908 228.962 201.487V207.366C228.962 209.945 231.05 212.036 233.626 212.036H367.545C370.12 212.036 372.208 209.945 372.208 207.366V201.487C372.208 198.908 370.12 196.817 367.545 196.817Z" fill="#3F3D56"/>
<path d="M367.545 227.256H233.626C231.05 227.256 228.962 229.347 228.962 231.926V237.805C228.962 240.384 231.05 242.475 233.626 242.475H367.545C370.12 242.475 372.208 240.384 372.208 237.805V231.926C372.208 229.347 370.12 227.256 367.545 227.256Z" fill="#3F3D56"/>
<path d="M414.549 427.126L402.816 427.125L397.234 381.797L414.552 381.797L414.549 427.126Z" fill="#FFB6B6"/>
<path d="M414.237 423.287L401.708 418.184L401.35 418.036L394.432 423.287C390.527 423.288 386.781 424.842 384.02 427.608C381.258 430.374 379.706 434.125 379.706 438.036V438.516H417.539V423.287H414.237Z" fill="#2F2E41"/>
<path d="M513.726 417.282L502.521 420.769L483.758 379.141L500.297 373.995L513.726 417.282Z" fill="#FFB6B6"/>
<path d="M512.29 413.71L498.814 412.56L498.427 412.526L493.378 419.596C489.648 420.758 486.532 423.355 484.715 426.817C482.897 430.279 482.527 434.323 483.685 438.058L483.827 438.515L519.956 427.27L515.443 412.728L512.29 413.71Z" fill="#2F2E41"/>
<path d="M466.778 194.924L471.55 208.517V215.865L470.885 223.946L478.272 250.896L484.066 310.324L513.226 398.296L490.867 404.744L433.782 261.008L415.752 406.393L395.305 405.847C395.305 405.847 391.807 397.374 392.727 392.768C393.647 388.162 393.647 393.689 393.647 388.162C393.647 382.635 389.659 385.036 392.573 380.611C395.486 376.186 395.123 372.312 395.305 369.643C395.486 366.973 393.647 259.187 393.647 255.502C393.647 251.817 393.009 252.624 393.328 248.996C393.646 245.368 397.689 246.86 396.588 240.586C395.486 234.313 395.123 235.41 395.305 230.716C395.486 226.022 398.021 198.5 398.021 198.5L466.778 194.924Z" fill="#2F2E41"/>
<path d="M390.253 199.346L431.243 159.755L442.604 127.537L425.846 120.239C417.239 128.497 407.934 154.219 407.934 154.219L379.727 190.159C379.507 190.235 379.288 190.315 379.072 190.41C377.801 190.972 376.697 191.851 375.865 192.965C375.033 194.078 374.502 195.388 374.324 196.767C374.145 198.146 374.325 199.548 374.845 200.837C375.365 202.127 376.209 203.26 377.294 204.127C378.38 204.994 379.67 205.567 381.041 205.788C382.411 206.01 383.816 205.874 385.119 205.394C386.422 204.913 387.579 204.104 388.478 203.044C389.378 201.985 389.989 200.711 390.253 199.346Z" fill="#FFB8B8"/>
<path d="M421.131 123.836L442.387 130.595L442.467 130.581C450.379 129.254 456.944 116.313 461.058 105.69C462.411 102.186 462.386 98.2982 460.987 94.8123C459.588 91.3264 456.92 88.5025 453.521 86.9116C451.007 85.7549 448.219 85.3257 445.474 85.6726C442.728 86.0196 440.134 87.1287 437.985 88.8747L427.07 97.8075L421.131 123.836Z" fill="black"/>
<path d="M470.389 212.386L470.514 212.221C477.146 203.412 468.075 181.597 466.704 178.433L472.87 176.603L471.795 164.844L471.278 159.601L476.072 155.04L476.088 154.924L479.386 131.422L483.7 115.867C485.326 109.987 485.361 103.779 483.8 97.8807C482.239 91.9826 479.139 86.6067 474.818 82.305L465.998 73.5348L455.432 56.9699L437.715 56.5118L431.344 67.8466C425.419 69.0575 420.107 72.3118 416.331 77.0424C412.556 81.773 410.558 87.6802 410.684 93.7348L411.284 123.91L404.927 161.297L404.748 168.088L398.509 174.683L399.662 181.349L394.995 183.211L392.711 192.685C391.839 193.777 386.08 201.069 386.027 203.101C386.019 203.406 386.237 203.707 386.711 204.047C390.439 206.718 411.275 212.507 420.653 209.027C430.642 205.323 469.792 212.279 470.186 212.35L470.389 212.386Z" fill="black"/>
<path d="M426.959 116.729L417.91 98.6587C404.774 99.5574 378.702 114.769 378.702 114.769L329.375 125.243C327.913 124.681 326.33 124.514 324.784 124.759C323.237 125.004 321.783 125.653 320.567 126.64C319.35 127.627 318.415 128.918 317.855 130.382C317.295 131.846 317.13 133.432 317.377 134.981C317.624 136.529 318.273 137.985 319.26 139.202C320.247 140.419 321.537 141.354 323 141.913C324.462 142.472 326.046 142.635 327.592 142.387C329.138 142.138 330.59 141.485 331.804 140.495L394.552 135.991L426.959 116.729Z" fill="#FFB8B8"/>
<path d="M423.309 119.696L446.945 102.105L451.108 87.0787C451.914 84.1258 451.88 81.0058 451.009 78.0713C450.138 75.1368 448.465 72.5048 446.179 70.4726C443.062 67.7389 439.024 66.2927 434.882 66.4265C430.741 66.5603 426.805 68.2642 423.869 71.1936C414.975 80.085 404.831 92.4893 407.01 101.091L407.032 101.178L423.309 119.696Z" fill="black"/>
<path d="M447.157 52.4046C458.764 52.4046 468.174 42.9805 468.174 31.3552C468.174 19.7299 458.764 10.3058 447.157 10.3058C435.549 10.3058 426.139 19.7299 426.139 31.3552C426.139 42.9805 435.549 52.4046 447.157 52.4046Z" fill="#FFB8B8"/>
<path d="M460.988 53.3691C457.472 51.7154 453.366 52.7204 449.486 52.8733C445.605 53.0263 440.903 51.561 440.079 47.7596C439.47 44.9488 441.3 41.8681 440.147 39.234C438.89 36.3615 435.115 35.9526 432.088 35.1483C428.294 34.0503 424.947 31.7698 422.535 28.6378C420.123 25.5058 418.77 21.6854 418.673 17.731C418.462 19.3005 421.144 19.816 422.025 18.5008C422.905 17.1857 422.299 15.3655 421.328 14.1158C420.356 12.8661 419.046 11.8681 418.313 10.4647C417.581 9.06126 417.723 6.97698 419.154 6.30158C419.886 7.78328 420.924 9.09252 422.199 10.143C423.474 11.1934 424.957 11.9611 426.55 12.3955C425.9 10.4165 426.82 8.19158 428.3 6.72779C429.873 5.35634 431.685 4.28758 433.645 3.57528C438.49 1.47194 444.147 -0.621108 448.838 1.80565C450.049 2.44409 451.101 3.34834 451.914 4.45087C452.727 5.5534 453.281 6.82571 453.535 8.17277C462.213 8.90772 471.125 18.323 470.631 27.0318C470.099 36.407 469.711 37.1656 461.918 52.942" fill="#2F2E41"/>
<path d="M566.271 439.056H535.745L535.614 438.817C535.224 438.108 534.847 437.357 534.495 436.585C531.35 429.843 530.021 422.132 528.848 415.329L527.965 410.201C527.858 409.58 527.939 408.941 528.197 408.366C528.454 407.791 528.878 407.306 529.412 406.974C529.946 406.641 530.568 406.476 531.197 406.499C531.826 406.522 532.433 406.732 532.942 407.103C537.581 410.484 542.222 413.862 546.865 417.236C548.623 418.517 550.63 420 552.553 421.602C552.739 420.7 552.933 419.795 553.127 418.902C553.26 418.286 553.575 417.724 554.029 417.288C554.484 416.851 555.058 416.561 555.679 416.454C556.299 416.346 556.938 416.427 557.512 416.685C558.087 416.943 558.571 417.366 558.904 417.902L562.476 423.649C565.08 427.846 567.38 431.982 566.911 436.442C566.913 436.496 566.909 436.551 566.899 436.604C566.805 437.337 566.632 438.057 566.381 438.752L566.271 439.056Z" fill="#F0F0F0"/>
<path d="M596.911 439.717L306.832 440C306.543 439.999 306.266 439.882 306.061 439.677C305.857 439.471 305.743 439.193 305.743 438.903C305.743 438.613 305.857 438.335 306.061 438.129C306.266 437.924 306.543 437.808 306.832 437.806L596.911 437.523C597.2 437.525 597.477 437.641 597.681 437.846C597.886 438.052 598 438.33 598 438.62C598 438.91 597.886 439.188 597.681 439.394C597.477 439.599 597.2 439.715 596.911 439.717Z" fill="#CACACA"/>
</g>
<defs>
<clipPath id="clip0_4_949">
<rect width="598" height="440" fill="white"/>
</clipPath>
</defs>
</svg>
